<?xml version="1.0" encoding="UTF-8"?>
<svg id="Layer_1" data-name="Layer 1" xmlns="http://www.w3.org/2000/svg" xmlns:xlink="http://www.w3.org/1999/xlink" viewBox="0 0 841.89 595.28">
  <defs>
    <style>
      .cls-1 {
        fill: #eee80e;
      }

      .cls-1, .cls-2, .cls-3, .cls-4, .cls-5, .cls-6, .cls-7, .cls-8, .cls-9, .cls-10, .cls-11 {
        stroke-width: 0px;
      }

      .cls-2 {
        fill: #8cb940;
      }

      .cls-12 {
        filter: url(#drop-shadow-1);
      }

      .cls-3 {
        fill: #a4c03a;
      }

      .cls-4 {
        fill: #f0504d;
      }

      .cls-5 {
        fill: #5a1e26;
      }

      .cls-6 {
        fill: #f5ed67;
      }

      .cls-7 {
        fill: #f3de0e;
      }

      .cls-8 {
        filter: url(#drop-shadow-2);
      }

      .cls-8, .cls-11 {
        fill: #fff;
      }

      .cls-9 {
        fill: #2d2c82;
      }

      .cls-10 {
        fill: #069a49;
      }
    </style>
    <filter id="drop-shadow-1" filterUnits="userSpaceOnUse">
      <feOffset dx="7" dy="7"/>
      <feGaussianBlur result="blur" stdDeviation="5"/>
      <feFlood flood-color="#000" flood-opacity=".75"/>
      <feComposite in2="blur" operator="in"/>
      <feComposite in="SourceGraphic"/>
    </filter>
    <filter id="drop-shadow-2" filterUnits="userSpaceOnUse">
      <feOffset dx="7" dy="7"/>
      <feGaussianBlur result="blur-2" stdDeviation="5"/>
      <feFlood flood-color="#000" flood-opacity=".75"/>
      <feComposite in2="blur-2" operator="in"/>
      <feComposite in="SourceGraphic"/>
    </filter>
  </defs>
  <g class="cls-12">
    <path class="cls-11" d="M406.45,352.46c-3.88-4.27-8.58-7.54-14.09-9.8-5.51-2.25-10.57-3.38-15.17-3.38-5.47,0-10.88.93-16.23,2.79-5.36,1.86-10.05,3.94-14.1,6.24-4.04,2.29-6.38,3.76-7.02,4.39v-9.03h-23.07v87.91l22.93,11.88v-50.37c0-7.6,2.27-15.16,6.83-22.69,4.55-7.52,10.08-13.66,16.57-18.41s12.32-7.13,17.46-7.13c4.2,0,7.61,1.17,10.22,3.51,2.61,2.33,3.92,4.33,3.92,5.99,0,4.04-2.28,8.14-6.83,12.3-4.56,4.16-10.16,6.55-16.81,7.19l17.82,20.19c3.96-1.9,8.85-5.58,14.67-11.05,5.82-5.46,8.73-10.76,8.73-15.91,0-5.47-1.94-10.34-5.83-14.62Z"/>
    <path class="cls-11" d="M810.66,310.17h-356.09c0-10.93-1.86-22.11-5.58-33.56-3.72-11.44-8.49-21.38-14.32-29.81-5.82-8.44-11.62-14.24-17.4-17.41l-24,.24c1.59,1.03,4.14,3.13,7.67,6.3,3.52,3.17,7.7,8.04,12.53,14.61,4.83,6.57,9.07,14.95,12.71,25.12,3.64,10.18,5.46,21.68,5.46,34.51h-129.72v14.38h129.72v103.84l22.22,11.86v-47.16c0-6.18,2.49-12.59,7.48-19.24,4.99-6.66,11.15-12.2,18.48-16.63,7.32-4.44,14.23-6.78,20.72-7.01,6.97,0,12.44,2.59,16.4,7.78s5.94,11.94,5.94,20.25c-.08,6.81-1.19,12.95-3.33,18.42-2.14,5.46-4.59,10.02-7.36,13.66-2.78,3.64-5.98,7.32-9.63,11.04-3.64,3.73-6.02,6.38-7.12,7.96l19.48,11.65c1.98-1.51,4.99-4.24,9.03-8.2,4.04-3.96,8.08-9.5,12.11-16.63,4.04-7.13,6.06-14.89,6.06-23.29s-2.1-16.27-6.29-24.59c-4.2-8.31-10.04-15.14-17.53-20.49-7.48-5.34-16.09-8.02-25.83-8.02-5.15,0-9.78.76-13.9,2.26-4.12,1.51-7.6,3.29-10.46,5.35-2.85,2.06-5.38,4.23-7.6,6.53-2.22,2.3-4.2,4.39-5.94,6.3v-35.64h115.95v30.64c-.08.08-.3.31-.66.71-.35.39-1.05,1.02-2.08,1.88-1.03.87-1.82,1.54-2.37,2.01v8.73c3.71-1.26,8.32-3.01,13.81-5.25,5.5-2.23,10.64-3.88,15.42-4.94,4.79-1.06,11.33-1.75,19.63-2.06,6.4,0,11.11.74,14.11,2.23,3.01,1.5,6.17,4.36,9.49,8.6v10.96c-2.61-1.99-6.42-3.81-11.45-5.44-5.02-1.64-10.3-2.46-15.83-2.46-10.21,0-19.62,2.01-28.24,6-8.62,4-15.5,9.03-20.64,15.09-5.14,6.06-7.71,11.86-7.71,17.4,0,5.94,2.04,11.27,6.11,15.98,4.07,4.71,9.39,8.34,15.96,10.87,6.56,2.54,13.28,3.8,20.16,3.8s13.41-.67,18.63-2.02c5.22-1.34,9.45-2.91,12.69-4.69,3.24-1.78,6.17-3.42,8.78-4.93,1.03.71,1.54,2.34,1.54,4.87,1.36.56,3.33,1.39,5.92,2.5,2.59,1.11,6.95,2.85,13.09,5.22v-45.73c0-10.3-.26-18.4-.77-24.3-.52-5.9-1.98-11.22-4.4-15.97-2.41-4.76-6.35-8.44-11.82-11.05-5.46-2.62-12.95-3.92-22.45-3.92-4.2,0-8.52.4-12.95,1.2-4.44.79-8.36,1.65-11.76,2.57-3.1.83-4.72,1.28-4.87,1.37h-.01c-.32,0-.58-.16-.82-.47-.24-.32-.56-.47-.95-.47v-18.93h79.11v-.02h59.13v28.75c-6.09-1.33-12.05-2.01-17.9-2.01s-10.95.77-15.7,2.29c-4.74,1.52-8.85,3.65-12.32,6.39-3.47,2.74-6.15,6.05-8.03,9.95-1.89,3.89-2.83,8.21-2.83,12.96s1.43,9.46,4.29,14.15c2.86,4.68,6.42,8.88,10.68,12.6,4.26,3.71,8.76,6.69,13.51,8.94,4.74,2.25,9.06,3.38,12.96,3.38,4.87,0,9.1-.82,12.69-2.47,3.59-1.64,6.54-3.95,8.85-6.93,2.31-2.98,4.05-6.51,5.21-10.59,1.15-4.08,1.73-8.49,1.73-13.24v-23.91c6.21,1.7,11.78,4.04,16.71,7.02,4.92,2.99,9.12,6.46,12.59,10.41,3.47,3.96,6.15,8.25,8.04,12.87,1.88,4.63,2.83,9.37,2.83,14.24v24.65c1.7,2.07,3.71,3.53,6.02,4.38s4.68,1.28,7.12,1.28v-115.11h34c.07,0,.13-.06.13-.13,0-7.86-6.38-14.23-14.24-14.23ZM633.72,405.51c-2.77,2.84-6.7,5.8-11.8,8.88-5.1,3.08-11.07,5.69-17.91,7.82-6.84,2.13-14.29,3.19-22.36,3.19-4.35,0-8.46-.63-12.33-1.89-3.88-1.26-6.29-3.52-7.24-6.75,0-3.08,2.02-7.03,6.05-11.84,4.03-4.82,9.57-9.02,16.61-12.62,7.03-3.59,14.86-5.39,23.48-5.39,3.4,0,9.19,1.23,17.38,3.68,8.18,2.44,12.27,5.48,12.27,9.12,0,1.02-1.38,2.96-4.15,5.8ZM724.32,383.95c0,3.78-.52,7.34-1.56,10.68-1.03,3.35-2.55,6.27-4.56,8.77-2.01,2.49-4.6,4.47-7.76,5.93-3.17,1.46-6.82,2.19-10.95,2.19-5.6,0-10.14-1.7-13.6-5.11-3.47-3.41-5.21-8.22-5.21-14.42,0-4.63.92-8.79,2.74-12.51,1.83-3.71,4.32-6.84,7.49-9.4,3.16-2.56,6.87-4.53,11.13-5.93,4.26-1.4,8.83-2.1,13.7-2.1,1.46,0,2.92.03,4.38.09s2.85.15,4.2.27v21.54ZM777.63,387.06c-4.88-6.57-10.75-12.42-17.62-17.53-6.88-5.11-14.4-9.25-22.55-12.41v-32.59h40.17v62.53Z"/>
  </g>
  <g>
    <g>
      <path class="cls-1" d="M332.79,202.84c-25.37-11.81-55.98-4.9-72.92,17.38-7.96,10.46-12.22,23.1-11.27,35.6.75,9.87,4.73,19.42,11.1,27.56,16.23,20.75,44.9,27.32,68.99,16.66,11.57-5.12,24.01-11.39,36.9-19.08,14.94-8.91,27.8-18.12,38.68-26.82-8.95-9.39-20.52-19.99-35.04-30.22-12.79-9.01-25.22-15.86-36.44-21.08Z"/>
      <path class="cls-7" d="M279.47,286.14c-9.5-1.76-17.92-6.81-23.72-14.22-4.36-5.58-6.92-11.8-7.39-18-.6-7.86,2.14-16.22,7.7-23.54,9.43-12.41,25.13-18.29,40.97-15.36,3.58.66,7.08,1.78,10.39,3.32,11.78,5.48,23.12,12.04,33.72,19.5,6.21,4.37,12.2,9.08,17.94,14.1-6.66,4.68-13.5,9.11-20.46,13.26-11.24,6.7-23.01,12.79-35,18.1-7.62,3.37-15.97,4.36-24.16,2.84h0Z"/>
    </g>
    <g>
      <path class="cls-1" d="M117.33,222.01c20.33,22.65,53.89,28.82,80.35,13.79,12.43-7.06,22.09-17.88,26.48-30.79,3.47-10.19,3.57-21.44.68-32.3-7.36-27.69-33.23-46.51-61.87-46.15-13.76.18-28.87,1.13-45.06,3.31-18.74,2.52-35.55,6.24-50.15,10.29,4.94,13.21,11.98,28.76,22.13,45.19,8.94,14.48,18.44,26.63,27.43,36.65Z"/>
      <path class="cls-7" d="M186.65,232.5c-15.32,1.43-30.68-4.65-41.1-16.26-9.54-10.63-18.17-22.16-25.65-34.28-4.95-8.02-9.45-16.36-13.44-24.93,9.76-2.16,19.62-3.91,29.48-5.24,4.81-.65,9.69-1.2,14.52-1.65,9.44-.88,19.04-1.39,28.52-1.51,21.45-.27,40.17,13.6,45.53,33.75,2.11,7.93,1.99,15.76-.35,22.64-2.96,8.71-9.68,16.4-18.92,21.65-5.73,3.26-11.99,5.22-18.58,5.84h0Z"/>
    </g>
    <g>
      <path class="cls-3" d="M163.64,305.61c25.95,6.51,53.31-6.22,65-31.22,5.49-11.74,7.12-24.87,3.9-36.85-2.54-9.46-8.05-17.97-15.53-24.64-19.06-17-47.12-17.77-67.67-2.67-9.87,7.26-20.34,15.79-30.98,25.81-12.32,11.6-22.64,23.09-31.2,33.69,10.13,7.38,22.93,15.42,38.43,22.52,13.65,6.26,26.56,10.48,38.04,13.36Z"/>
      <path class="cls-2" d="M193.15,287.19c-2.87-.08-5.75-.48-8.55-1.18-12.05-3.02-23.89-7.18-35.19-12.36-6.63-3.04-13.12-6.44-19.42-10.19,5.36-5.86,10.93-11.52,16.67-16.92,9.27-8.73,19.15-16.97,29.38-24.48,6.91-5.07,15.35-7.74,23.77-7.5,8.58.24,16.81,3.5,23.16,9.17,5.12,4.57,8.67,10.12,10.27,16.06,2.03,7.53,1.03,16.2-2.82,24.42-6.74,14.41-21.37,23.43-37.27,22.98h0Z"/>
    </g>
    <g>
      <path class="cls-3" d="M315.05,134.24c-27.55-2.87-53.96,13.46-62.64,39.76-4.07,12.35-3.99,25.55.93,36.94,3.88,8.99,10.69,16.65,19.27,22.21,21.87,14.19,50.82,11.09,69.93-6.65,9.18-8.52,18.79-18.39,28.38-29.75,11.11-13.15,20.18-25.92,27.55-37.57-11.4-5.9-25.64-12.09-42.53-16.98-14.87-4.31-28.71-6.71-40.89-7.98Z"/>
      <path class="cls-2" d="M283.33,229.1c-6.12-.76-11.82-2.84-16.95-6.16-6.27-4.06-10.97-9.42-13.59-15.49-3.32-7.69-3.48-16.98-.45-26.16,6.33-19.2,25.94-31.57,46.64-29.41,1.46.15,2.94.32,4.44.51,11.41,1.42,22.78,3.76,33.8,6.95,8.24,2.39,16.36,5.27,24.29,8.62-5.27,7.42-10.85,14.62-16.69,21.54-8.42,9.97-17.54,19.53-27.11,28.42-9.34,8.67-21.87,12.75-34.37,11.19h0Z"/>
    </g>
    <g>
      <path class="cls-3" d="M153.25,128.22c-.24,30.2,20.24,57.16,49.69,63.82,13.83,3.13,28.14,1.66,39.99-4.87,9.35-5.15,16.95-13.34,22.1-23.23,13.11-25.22,6.73-56.31-14.51-75.19-10.21-9.07-21.92-18.47-35.25-27.69-15.43-10.68-30.23-19.19-43.65-25.98-5.21,12.99-10.44,29.09-13.99,47.93-3.12,16.59-4.28,31.85-4.39,45.21Z"/>
      <path class="cls-2" d="M213.61,191.02c-.76-.13-1.54-.29-2.3-.46-21.49-4.86-36.97-24.86-36.79-47.54.11-14.17,1.49-28.39,4.1-42.28,1.73-9.19,4.01-18.31,6.82-27.26,8.6,4.94,17,10.25,25.12,15.86,11.7,8.09,23.02,17,33.67,26.46,15.91,14.14,20.36,36.83,10.82,55.18-3.76,7.23-9.08,12.88-15.39,16.36-7.34,4.04-16.59,5.35-26.05,3.69,0,0,0,0,0,0Z"/>
    </g>
    <g>
      <path class="cls-1" d="M262.75,72.52c-25.45,14.76-37.93,45.3-28.93,73.31,4.23,13.15,12.55,24.43,23.9,31.14,8.96,5.29,19.59,7.62,30.43,7.03,27.65-1.49,50.58-22.25,55.9-49.43,2.55-13.06,4.64-27.54,5.78-43.29,1.32-18.24,1.12-34.87.17-49.49-13.48,2.06-29.58,5.65-47.14,12.01-15.47,5.6-28.85,12.18-40.11,18.71Z"/>
      <path class="cls-7" d="M271.54,180.3c-5.39-.56-10.29-2.13-14.56-4.65-7.66-4.53-13.6-12.41-16.75-22.19-6.57-20.44,2.54-43.33,21.66-54.41,11.94-6.92,24.56-12.81,37.51-17.5,8.57-3.1,17.35-5.7,26.25-7.79.11,9.66-.18,19.34-.87,28.93-1,13.83-2.85,27.74-5.52,41.36-3.98,20.35-20.81,35.32-40.93,36.41-2.29.12-4.58.07-6.79-.16h0Z"/>
    </g>
  </g>
  <path class="cls-8" d="M375.23,179.9c-.13.37-2.67-.39-7.64-2.27-5.52-2.56-11.04-5.13-16.57-7.69-7.65,8.49-15.3,16.98-22.96,25.46-.65.73-1.12,1.64-1.36,2.64l-12.79,52.21c-.71,2.87-2.42,5.27-4.73,6.6l-33.33,19.21-8.25,5.98c-2.51,1.83-4.18,4.88-4.52,8.3l-3.15,31.37c-.42,4.22-.07,8.49,1.03,12.53l4.37,15.98c.76,2.81,1.04,5.77.8,8.7l-8.83,110.49c-.09,1.06.13,2.12.63,3.01l5.52,10.06c1.81,3.22,3.63,6.44,5.44,9.66,1.19,2.81.67,4.11.47,4.49-1.12,2.2-5.57,2.35-11.05-.4-4.59-3.78-9.18-7.56-13.77-11.34-.77-.63-1.15-1.72-.97-2.79l1.08-6.42c.16-.94.13-1.91-.09-2.83l-2.34-9.99-2.43,10.31c-.18.77-.2,1.57-.07,2.35l1.16,6.51c.19,1.13-.14,2.3-.89,3.05-4.03,4.11-8.06,8.22-12.09,12.33-6.48,3.24-11.69,3.63-13.08,1.18-.3-.54-.64-1.6-.06-3.69l11.58-23.52c.55-1.12.78-2.41.68-3.69l-7.28-86.03c-12.12,3.22-24.1,4.39-35.93,3.51.67,3.75,1.01,7.44,1.01,11.06,0,15.56-5.13,28.19-15.39,37.92-10.26,9.72-23.57,14.58-39.93,14.58-21.19,0-39.43-9.49-54.71-28.46-15.29-18.98-24.61-41.41-27.96-67.29h10.05c3.49,19.58,11.23,35.81,23.24,48.68,12,12.87,25.51,19.31,40.53,19.31,9.79,0,18.91-3.22,27.36-9.65,8.44-6.44,12.67-15.36,12.67-26.76,0-6.43-2.01-12.57-6.04-18.4-4.02-5.84-9.89-10.19-17.6-13.08-7.71-2.88-14.05-4.32-19.01-4.32s-12.67,1.07-22.73,3.22l-22.52-26.35c24.67-1.88,44.52-6.81,59.54-14.79,15.01-7.98,22.53-17.6,22.53-28.86,0-7.11-3.06-13.01-9.16-17.7-6.1-4.7-13.44-7.05-22.02-7.05-15.16,0-34.8,6.64-58.94,19.92l-17.9-25.75c19.17-7.77,37.61-11.67,55.31-11.67,20.65,0,37.32,5.2,49.99,15.59,12.67,10.4,19.01,24.18,19.01,41.34,0,9.93-3.15,18.58-9.46,25.95-6.3,7.38-15.76,13.47-28.36,18.3,21.99,10.2,40.23,15.29,54.71,15.29,15.73,0,26.75-4.6,33.06-13.77l1.43-5.09c1.55-5.53,1.78-11.44.67-17.11l-5.81-29.65c-.57-2.91-2.18-5.4-4.42-6.86l-25.46-16.61c-.89-.58-1.71-1.3-2.44-2.14l-22.76-26.17c-.91-1.05-1.64-2.27-2.18-3.62l-14.73-36.89c-.63-1.58-1.97-2.7-3.6-2.79-9.38-7.13-17.11-13-26.49-20.13-6.31-13.4-9.24-20.25-8.79-20.56.4-.28,3.54,4.75,9.42,15.08,7.15,4.06,14.3,8.11,21.44,12.17,1.92,1.08,4.12-.72,3.87-3.19-2.45-24.27-4.89-48.54-7.34-72.81-3.79-6.79-5.55-10.31-5.27-10.55.32-.26,3.22,3.63,8.7,11.68,1.45,4.93,2.76,9.44,4.21,14.37.11,2.37,2.94,2.53,3.18.01,4.06-7.35,7.66-13.87,11.72-21.21,7.14-5.8,10.86-8.46,11.18-8,.36.53-3.69,5.1-12.15,13.72-3.89,11.54-7.13,21.15-11.02,32.7l3.74,41.08,11.51,26.27c.48,1.08,1.83,1,2.2-.13l12.14-36.66c-.92-10.97-1.68-20.21-2.6-31.18-5.66-10.53-8.3-15.96-7.9-16.28s3.86,4.51,10.39,14.49l3.58,18.52c.42,2.15,2.76,2.85,4.03,1.21l5.38-7.01,25.74-23.95c-.68-7.2-1.36-14.4-2.04-21.59,1.06-7.14,1.76-10.69,2.1-10.65.29.04.32,2.64.09,7.79,1.73,7.36,3.47,14.72,5.2,22.08,5.99-2.5,11.99-4.99,17.99-7.49,4.18-7.37,6.48-10.91,6.88-10.65.4.28-1.18,4.55-4.74,12.82l-21.66,14.49-24.19,24.57c-1.52,1.54-2.72,3.46-3.51,5.61l-7.13,19.45c-.43,1.17.53,2.38,1.57,1.98l26.52-10.17c4.41-6.83,8.76-13.56,13.18-20.39.28-8.81.59-13.21.93-13.21s.7,4.27,1.1,12.81c-3.08,9.97-6.15,19.95-9.23,29.92l-31.88,13.83c-.96.42-1.73,1.29-2.11,2.39l-6.89,19.63c-.56,1.59-.3,3.41.68,4.69l18.18,23.85c1.39,1.82,3.26,3.05,5.32,3.49l27.1,5.79h3.09c2.13,0,3.69-2.3,3.2-4.7l-1.64-7.99c.68.88,4.96,6.21,11.87,6.22,7.88-.99,11.37-6.17,11.82-6.89l-1.1,7.41c-.38,2.55,1.34,4.86,3.57,4.79l3.5-.12,32.35-8.79c3.2-.87,5.78-3.61,6.81-7.24l1.91-6.74c.32-1.12.09-2.35-.6-3.22l-35.92-45.32-17.79-9.96c-1.23-.69-2.17-1.92-2.62-3.41-3.11-10.2-6.21-20.39-9.32-30.59.38-7.33.77-10.99,1.17-10.99.36,0,.73,2.88,1.11,8.63l12.51,28.71c.41.93,1.1,1.65,1.94,2.02l11.14,4.85c.92.4,1.87-.49,1.73-1.61l-4.8-40.48c-4.25-12.54-8.5-25.08-12.76-37.61-5.39-4.68-7.99-7.18-7.81-7.49s3.07,1.51,8.68,5.47c4.99,10.64,9.97,21.29,14.95,31.94,4.98-6.03,9.95-12.06,14.93-18.09,4.22-8.73,6.48-13,6.8-12.82.29.18-1.18,4.38-4.42,12.62-4.92,8.07-9.84,16.13-14.76,24.2l6.63,47.07c.22,1.57.87,3.01,1.85,4.12l32.54,36.5c.71.79,1.88.53,2.29-.51l15.3-38.88-16.31-31.15c-8.04-.19-16.08-.39-24.12-.59-4.94-1.25-7.39-2.18-7.33-2.81.08-.86,4.95-1.12,14.61-.79,4.67-.65,9.33-1.31,14-1.96,1.42-.2,2.48-1.62,2.46-3.28l-.3-23.49c-2.77-4.8-5.55-9.6-8.32-14.39-2.46-6.22-3.49-9.45-3.08-9.71.48-.31,2.97,3.56,7.47,11.63,2.38,2.95,4.76,5.9,7.13,8.85,1.75-.02,2.55-.03,4.3-.05,7.46-9.6,11.35-14.24,11.68-13.93.26.25-1.78,3.69-6.1,10.3l-7.64,8.68.17,25.23,18.1,32.91c.57,1.05,1.82,1.26,2.63.44l12.39-12.45.51-20.9c-3.28-6.5-6.57-13.01-9.85-19.51-1.15-3.48-1.57-5.3-1.27-5.47.63-.38,4.55,6.79,11.76,21.5,1.16.15,1.31.17,2.46.32,4.13-5.31,8.26-10.61,12.39-15.91,3.14-3.92,4.81-5.79,4.98-5.62.24.23-2.11,4.02-7.05,11.36-2.55,4.91-5.09,9.81-7.64,14.71l.56,21.96c1.17,2.05,2.09,3.63,3.26,5.68,12.96,6.76,19.32,10.44,19.11,11.06Z"/>
  <ellipse class="cls-4" cx="242.44" cy="233.26" rx="15.55" ry="16.53"/>
  <ellipse class="cls-6" cx="242.44" cy="275.49" rx="15.55" ry="16.53"/>
  <ellipse class="cls-5" cx="242.44" cy="321.61" rx="15.55" ry="16.53"/>
  <ellipse class="cls-10" cx="242.44" cy="367.74" rx="15.55" ry="16.53"/>
  <ellipse class="cls-9" cx="242.44" cy="416.28" rx="15.55" ry="16.53"/>
</svg>