<?xml version="1.0" encoding="UTF-8"?>
<svg id="Layer_1" data-name="Layer 1" xmlns="http://www.w3.org/2000/svg" xmlns:xlink="http://www.w3.org/1999/xlink" viewBox="0 0 432.46 619.72">
  <defs>
    <style>
      .cls-1 {
        fill: #eee80e;
      }

      .cls-1, .cls-2, .cls-3, .cls-4, .cls-5, .cls-6, .cls-7, .cls-8, .cls-9, .cls-10 {
        stroke-width: 0px;
      }

      .cls-2 {
        fill: #8cb940;
      }

      .cls-3 {
        fill: #a4c03a;
      }

      .cls-4 {
        fill: #f0504d;
      }

      .cls-5 {
        fill: #5a1e26;
      }

      .cls-6 {
        fill: #f5ed67;
      }

      .cls-7 {
        fill: #f3de0e;
      }

      .cls-8 {
        fill: #fff;
        filter: url(#drop-shadow-1);
      }

      .cls-9 {
        fill: #2d2c82;
      }

      .cls-10 {
        fill: #069a49;
      }
    </style>
    <filter id="drop-shadow-1" filterUnits="userSpaceOnUse">
      <feOffset dx="7" dy="7"/>
      <feGaussianBlur result="blur" stdDeviation="5"/>
      <feFlood flood-color="#231f20" flood-opacity=".75"/>
      <feComposite in2="blur" operator="in"/>
      <feComposite in="SourceGraphic"/>
    </filter>
  </defs>
  <g>
    <g>
      <path class="cls-1" d="M340.6,215.59c-32.61-15.17-71.95-6.3-93.72,22.33-10.22,13.44-15.7,29.68-14.48,45.75.96,12.68,6.08,24.96,14.26,35.42,20.86,26.67,57.71,35.11,88.66,21.41,14.87-6.58,30.85-14.63,47.43-24.52,19.2-11.45,35.73-23.28,49.71-34.47-11.5-12.06-26.37-25.69-45.04-38.83-16.44-11.58-32.4-20.38-46.83-27.09Z"/>
      <path class="cls-7" d="M272.07,322.64c-12.21-2.26-23.03-8.75-30.49-18.28-5.61-7.17-8.89-15.16-9.49-23.13-.77-10.1,2.75-20.85,9.9-30.25,12.12-15.94,32.3-23.51,52.65-19.74,4.61.85,9.1,2.29,13.36,4.27,15.14,7.04,29.72,15.48,43.33,25.06,7.98,5.62,15.68,11.67,23.06,18.11-8.56,6.01-17.34,11.71-26.29,17.04-14.44,8.61-29.58,16.44-44.98,23.25-9.79,4.33-20.53,5.6-31.04,3.65h0Z"/>
    </g>
    <g>
      <path class="cls-1" d="M63.7,240.22c26.12,29.11,69.25,37.04,103.26,17.72,15.97-9.07,28.38-22.97,34.03-39.56,4.46-13.09,4.59-27.56.88-41.51-9.46-35.58-42.7-59.77-79.51-59.3-17.69.23-37.11,1.45-57.9,4.25-24.09,3.24-45.68,8.02-64.44,13.23,6.34,16.98,15.39,36.95,28.44,58.08,11.49,18.6,23.7,34.22,35.26,47.1Z"/>
      <path class="cls-7" d="M152.78,253.7c-19.68,1.83-39.43-5.98-52.82-20.9-12.26-13.66-23.35-28.48-32.97-44.05-6.36-10.3-12.14-21.02-17.27-32.04,12.54-2.77,25.22-5.03,37.88-6.73,6.18-.83,12.46-1.55,18.66-2.12,12.13-1.13,24.46-1.78,36.65-1.94,27.56-.35,51.63,17.48,58.51,43.37,2.71,10.19,2.55,20.25-.45,29.09-3.81,11.19-12.45,21.08-24.32,27.82-7.37,4.19-15.4,6.71-23.88,7.5h0Z"/>
    </g>
    <g>
      <path class="cls-3" d="M123.21,347.65c33.35,8.36,68.5-7.99,83.54-40.12,7.06-15.09,9.15-31.96,5.01-47.36-3.27-12.15-10.35-23.09-19.95-31.67-24.49-21.85-60.56-22.84-86.97-3.43-12.69,9.32-26.14,20.3-39.81,33.17-15.83,14.91-29.09,29.67-40.09,43.3,13.01,9.48,29.47,19.82,49.39,28.95,17.55,8.04,34.13,13.47,48.88,17.17Z"/>
      <path class="cls-2" d="M161.14,323.99c-3.69-.11-7.39-.62-10.99-1.52-15.48-3.88-30.7-9.23-45.23-15.88-8.51-3.9-16.85-8.28-24.96-13.1,6.89-7.53,14.05-14.8,21.42-21.74,11.91-11.22,24.62-21.8,37.76-31.46,8.87-6.52,19.72-9.94,30.55-9.63,11.03.31,21.6,4.5,29.77,11.79,6.58,5.87,11.15,13.01,13.2,20.64,2.6,9.68,1.32,20.82-3.62,31.38-8.66,18.52-27.46,30.11-47.89,29.53h0Z"/>
    </g>
    <g>
      <path class="cls-3" d="M317.79,127.43c-35.4-3.69-69.35,17.3-80.49,51.1-5.23,15.88-5.12,32.83,1.2,47.48,4.99,11.56,13.73,21.4,24.76,28.55,28.11,18.23,65.31,14.26,89.87-8.54,11.8-10.95,24.15-23.64,36.47-38.23,14.27-16.9,25.93-33.31,35.41-48.28-14.65-7.58-32.95-15.54-54.66-21.82-19.12-5.53-36.89-8.62-52.55-10.25Z"/>
      <path class="cls-2" d="M277.03,249.33c-7.86-.98-15.19-3.65-21.78-7.92-8.05-5.22-14.09-12.11-17.46-19.91-4.27-9.88-4.47-21.82-.58-33.62,8.13-24.67,33.34-40.57,59.93-37.8,1.87.2,3.78.41,5.71.65,14.66,1.83,29.27,4.83,43.43,8.93,10.59,3.07,21.03,6.77,31.22,11.08-6.77,9.53-13.94,18.79-21.45,27.68-10.82,12.81-22.54,25.09-34.85,36.52-12,11.15-28.11,16.39-44.18,14.39h0Z"/>
    </g>
    <g>
      <path class="cls-3" d="M109.86,119.7c-.3,38.8,26.01,73.45,63.86,82.02,17.77,4.02,36.17,2.13,51.4-6.26,12.02-6.62,21.79-17.14,28.4-29.85,16.85-32.41,8.65-72.37-18.65-96.63-13.12-11.66-28.17-23.74-45.3-35.59-19.83-13.72-38.85-24.66-56.09-33.38-6.7,16.69-13.42,37.38-17.97,61.59-4.01,21.32-5.51,40.93-5.64,58.1Z"/>
      <path class="cls-2" d="M187.43,200.4c-.98-.17-1.98-.37-2.96-.59-27.62-6.25-47.51-31.94-47.28-61.09.14-18.21,1.92-36.49,5.27-54.34,2.22-11.81,5.15-23.53,8.76-35.04,11.05,6.35,21.85,13.17,32.28,20.39,15.03,10.4,29.59,21.84,43.27,34,20.45,18.17,26.16,47.33,13.91,70.91-4.83,9.29-11.67,16.56-19.78,21.03-9.43,5.19-21.32,6.88-33.47,4.74,0,0,0,0,0,0Z"/>
    </g>
    <g>
      <path class="cls-1" d="M250.58,48.11c-32.71,18.97-48.74,58.21-37.18,94.21,5.43,16.9,16.13,31.4,30.71,40.02,11.51,6.8,25.17,9.79,39.11,9.04,35.54-1.92,65-28.59,71.83-63.52,3.28-16.78,5.96-35.4,7.42-55.63,1.69-23.44,1.44-44.81.22-63.6-17.32,2.65-38.01,7.26-60.58,15.43-19.88,7.2-37.07,15.66-51.54,24.05Z"/>
      <path class="cls-7" d="M261.88,186.62c-6.93-.72-13.22-2.73-18.71-5.97-9.84-5.82-17.48-15.94-21.52-28.51-8.44-26.27,3.27-55.68,27.84-69.93,15.35-8.9,31.56-16.47,48.2-22.49,11.01-3.99,22.29-7.33,33.73-10.01.15,12.42-.23,24.86-1.12,37.18-1.28,17.77-3.67,35.65-7.09,53.15-5.12,26.15-26.75,45.4-52.6,46.79-2.95.16-5.89.09-8.73-.21h0Z"/>
    </g>
    <path class="cls-8" d="M209.48,267.84l2.11,10.27c.63,3.08-1.38,6.04-4.11,6.04h-3.98l-34.83-7.44c-2.65-.57-5.06-2.14-6.84-4.49l-23.36-30.65c-1.26-1.65-1.6-3.98-.88-6.02l8.86-25.23c.5-1.42,1.48-2.53,2.72-3.06l40.96-17.78c3.96-12.82,7.91-25.63,11.87-38.45-.51-10.98-.99-16.47-1.42-16.47-.44,0-.84,5.67-1.2,16.99-5.68,8.78-11.26,17.43-16.94,26.21l-34.07,13.07c-1.34.51-2.57-1.04-2.02-2.55l9.16-24.99c1.01-2.77,2.56-5.24,4.51-7.22l31.09-31.57,27.84-18.62c4.58-10.63,6.61-16.12,6.09-16.47-.51-.34-3.46,4.22-8.84,13.68-7.7,3.21-15.41,6.42-23.11,9.63-2.23-9.46-4.46-18.92-6.69-28.38.29-6.62.26-9.96-.11-10.01-.44-.06-1.34,4.5-2.7,13.68.87,9.25,1.75,18.5,2.62,27.74l-33.07,30.78-6.92,9c-1.63,2.12-4.63,1.21-5.17-1.55l-4.61-23.79c-8.38-12.83-12.83-19.03-13.34-18.62-.51.41,2.87,7.38,10.15,20.91,1.17,14.1,2.16,25.97,3.33,40.07l-15.6,47.11c-.48,1.45-2.22,1.56-2.83.17l-14.8-33.76-4.8-52.8c5-14.84,9.16-27.19,14.16-42.03,10.87-11.07,16.08-16.95,15.62-17.63-.41-.59-5.19,2.83-14.36,10.28-5.21,9.44-9.85,17.82-15.06,27.25-.31,3.24-3.94,3.03-4.09-.01-1.85-6.34-3.55-12.12-5.4-18.46-7.05-10.35-10.78-15.35-11.18-15.01-.36.3,1.89,4.82,6.77,13.56,3.15,31.19,6.29,62.38,9.44,93.57.32,3.17-2.51,5.49-4.97,4.09-9.18-5.21-18.37-10.42-27.55-15.63-7.56-13.28-11.6-19.74-12.12-19.38-.57.4,3.19,9.21,11.3,26.43,12.06,9.16,21.98,16.7,34.04,25.86,2.09.12,3.82,1.55,4.63,3.58l18.93,47.42c.69,1.73,1.64,3.3,2.81,4.64l29.25,33.64c.94,1.08,1.99,2,3.14,2.75l32.72,21.34c2.88,1.88,4.94,5.08,5.67,8.81l7.47,38.11c1.43,7.29,1.13,14.89-.86,21.99l-4.08,14.52c-1.56,5.57-2.12,11.46-1.62,17.29l11.48,135.7c.14,1.65-.17,3.3-.87,4.74l-14.88,30.22c-.74,2.69-.31,4.05.08,4.75,1.78,3.14,8.47,2.65,16.81-1.52,5.18-5.28,10.36-10.56,15.53-15.84.96-.98,1.39-2.47,1.13-3.92l-1.48-8.37c-.18-1-.15-2.03.08-3.02l3.12-13.25,3.02,12.84c.28,1.19.32,2.43.12,3.64l-1.39,8.25c-.23,1.37.25,2.78,1.24,3.59,5.9,4.86,11.8,9.71,17.7,14.57,7.04,3.54,12.75,3.34,14.2.52.25-.49.93-2.16-.61-5.77-2.33-4.14-4.66-8.28-6.99-12.41l-7.1-12.92c-.63-1.15-.92-2.51-.81-3.87l11.36-141.99c.3-3.77-.05-7.58-1.04-11.19l-5.6-20.53c-1.42-5.2-1.87-10.68-1.33-16.1l4.05-40.32c.44-4.4,2.58-8.32,5.82-10.67l10.6-7.69,42.82-24.68c2.97-1.71,5.17-4.79,6.08-8.49l16.43-67.09c.32-1.29.92-2.46,1.76-3.39,9.84-10.91,19.67-21.82,29.51-32.73,7.1,3.29,14.19,6.59,21.29,9.88,6.38,2.42,9.66,3.39,9.82,2.91.27-.79-7.91-5.52-24.56-14.2-1.52-2.63-2.69-4.67-4.2-7.3l-.72-28.22c3.27-6.3,6.55-12.6,9.82-18.91,6.34-9.44,9.36-14.31,9.06-14.6-.23-.22-2.36,2.18-6.41,7.22-5.3,6.81-10.61,13.63-15.91,20.44-1.48-.19-1.68-.22-3.16-.41-9.27-18.9-14.31-28.11-15.12-27.63-.38.22.17,2.57,1.64,7.03,4.22,8.36,8.44,16.72,12.66,25.08l-.65,26.86-15.92,16c-1.04,1.05-2.65.78-3.39-.57l-23.26-42.28-.22-32.43,9.82-11.15c5.56-8.5,8.17-12.91,7.83-13.24-.42-.4-5.42,5.56-15.01,17.9-2.24.02-3.27.04-5.52.06-3.06-3.79-6.11-7.58-9.17-11.37-5.79-10.36-8.99-15.35-9.61-14.95-.52.34.8,4.49,3.96,12.48,3.57,6.17,7.13,12.33,10.7,18.5l.39,30.19c.03,2.14-1.34,3.96-3.17,4.22-5.99.84-11.99,1.68-17.98,2.52-12.41-.43-18.67-.1-18.78,1.01-.07.8,3.06,2,9.41,3.61,10.33.25,20.67.51,31,.76l20.96,40.03-19.66,49.97c-.53,1.33-2.03,1.66-2.94.65l-41.82-46.9c-1.27-1.42-2.1-3.28-2.39-5.29l-8.51-60.49c6.32-10.37,12.64-20.73,18.97-31.1,4.16-10.59,6.06-15.99,5.68-16.22-.4-.24-3.31,5.25-8.73,16.47-6.39,7.75-12.79,15.5-19.18,23.25-6.4-13.68-12.81-27.36-19.21-41.05-7.21-5.08-10.93-7.43-11.16-7.03-.23.4,3.11,3.61,10.04,9.63,5.47,16.11,10.93,32.22,16.4,48.33l6.17,52.02c.17,1.45-1.05,2.58-2.23,2.07l-14.31-6.24c-1.08-.47-1.97-1.39-2.49-2.59l-16.09-36.89c-.49-7.4-.96-11.1-1.42-11.1-.52,0-1.02,4.71-1.5,14.13,3.99,13.11,7.98,26.21,11.97,39.32.58,1.92,1.8,3.49,3.38,4.38l22.86,12.81,46.16,58.24c.88,1.12,1.18,2.7.77,4.14l-2.45,8.66c-1.32,4.66-4.64,8.19-8.76,9.31l-41.58,11.29-4.49.15c-2.86.1-5.08-2.88-4.59-6.15l1.42-9.53c-.57.93-5.07,7.58-15.18,8.86-8.89,0-14.39-6.86-15.26-7.99Z"/>
  </g>
  <ellipse class="cls-4" cx="224.48" cy="254.67" rx="19.98" ry="21.24"/>
  <ellipse class="cls-6" cx="224.48" cy="308.95" rx="19.98" ry="21.24"/>
  <ellipse class="cls-5" cx="224.48" cy="368.23" rx="19.98" ry="21.24"/>
  <ellipse class="cls-10" cx="224.48" cy="427.51" rx="19.98" ry="21.24"/>
  <ellipse class="cls-9" cx="224.48" cy="489.88" rx="19.98" ry="21.24"/>
</svg>